<svg xmlns="http://www.w3.org/2000/svg" viewBox="0 0 247 66"><defs><style>.cls-1{fill:#fff;}</style></defs><title>logo-white</title><g id="レイヤー_2" data-name="レイヤー 2"><g id="レイヤー_1-2" data-name="レイヤー 1"><path class="cls-1" d="M7.8.79A24.4,24.4,0,0,1,10.42.27,23.7,23.7,0,0,1,14,0a17.86,17.86,0,0,1,3.07.24,4.39,4.39,0,0,1,2.15.94,3.36,3.36,0,0,1,1.07,1.93,8.65,8.65,0,0,1-.11,3.19L18.79,14a22.3,22.3,0,0,1,3.95-1.1,23.54,23.54,0,0,1,4-.31,17.58,17.58,0,0,1,6.93,1.34,13.84,13.84,0,0,1,5.28,3.89,14.39,14.39,0,0,1,2.94,6.33,22.52,22.52,0,0,1-.1,8.73,27.19,27.19,0,0,1-3.17,8.93,22.12,22.12,0,0,1-5.46,6.33A22.89,22.89,0,0,1,25.7,52a30.58,30.58,0,0,1-9,1.3A25.9,25.9,0,0,1,8.05,52a18.5,18.5,0,0,1-5.6-3A6.13,6.13,0,0,1,.13,42.72Zm10.8,41.93a8.25,8.25,0,0,0,6.09-2.48A13.66,13.66,0,0,0,28,32.88q.91-5-.7-7.39A5.64,5.64,0,0,0,22.27,23a11,11,0,0,0-2.78.31,18.87,18.87,0,0,0-2.66.94L13.7,41.46a6.53,6.53,0,0,0,1.93.91A10.38,10.38,0,0,0,18.59,42.72Z"/><path class="cls-1" d="M64.65,12.59a30.53,30.53,0,0,1,7.61.87,14.19,14.19,0,0,1,5.51,2.64,9.21,9.21,0,0,1,3,4.48A13.44,13.44,0,0,1,81,27L77.73,44.6A5.91,5.91,0,0,1,76,47.95a14.82,14.82,0,0,1-3.13,2.24q-5.69,3.07-15,3.07a31.24,31.24,0,0,1-7.39-.79,14.7,14.7,0,0,1-5.33-2.36,8.35,8.35,0,0,1-3-4,11,11,0,0,1-.27-5.66,13,13,0,0,1,4.76-8.34q3.77-2.91,10.68-3.62l10.54-1.1.1-.55a2.77,2.77,0,0,0-1.41-3.26,12.33,12.33,0,0,0-5.62-1,28.56,28.56,0,0,0-6,.63,36.37,36.37,0,0,0-5.41,1.57,4.24,4.24,0,0,1-1.34-2.16,6.34,6.34,0,0,1-.16-3,6,6,0,0,1,1.58-3.26,9.76,9.76,0,0,1,3.42-2.08A26.82,26.82,0,0,1,58.7,13,48.94,48.94,0,0,1,64.65,12.59Zm-5,30.92a18.56,18.56,0,0,0,3-.28,8.38,8.38,0,0,0,2.54-.75l1.15-6.29-5.77.47a10,10,0,0,0-3.8.94A3.2,3.2,0,0,0,54.91,40a2.64,2.64,0,0,0,.76,2.56Q56.71,43.5,59.63,43.5Z"/><path class="cls-1" d="M89.37.79A24.32,24.32,0,0,1,92,.27,23.7,23.7,0,0,1,95.59,0a17.86,17.86,0,0,1,3.07.24,4.39,4.39,0,0,1,2.15.94,3.36,3.36,0,0,1,1.07,1.93,8.65,8.65,0,0,1-.11,3.19L100.37,14a22.3,22.3,0,0,1,3.95-1.1,23.54,23.54,0,0,1,4-.31,17.58,17.58,0,0,1,6.93,1.34,13.85,13.85,0,0,1,5.29,3.89,14.41,14.41,0,0,1,2.94,6.33,22.52,22.52,0,0,1-.1,8.73,27.17,27.17,0,0,1-3.17,8.93,22.12,22.12,0,0,1-5.46,6.33A22.9,22.9,0,0,1,107.28,52a30.57,30.57,0,0,1-9,1.3A25.9,25.9,0,0,1,89.63,52,18.5,18.5,0,0,1,84,49a6.13,6.13,0,0,1-2.32-6.29Zm10.79,41.93a8.26,8.26,0,0,0,6.09-2.48,13.64,13.64,0,0,0,3.36-7.35q.91-5-.7-7.39A5.64,5.64,0,0,0,103.84,23a11,11,0,0,0-2.78.31,18.87,18.87,0,0,0-2.66.94L95.27,41.46a6.53,6.53,0,0,0,1.93.91A10.38,10.38,0,0,0,100.17,42.72Z"/><path class="cls-1" d="M129.45,42.24q-.51-2-1-4.4t-1-5.59q-.49-3.14-.89-7.2t-.7-9.32a12.44,12.44,0,0,1,3.31-1.93A11,11,0,0,1,133.3,13a7.42,7.42,0,0,1,4.37,1.14q1.61,1.14,1.9,4.29L141.84,40h.32q1.44-2.67,2.92-5.82t3-6.49q1.48-3.34,2.84-6.69t2.5-6.57a14.87,14.87,0,0,1,6.51-1.5,7.2,7.2,0,0,1,4.36,1.18q1.6,1.18,1.07,4.09a28.63,28.63,0,0,1-1.45,4.92q-1.06,2.79-2.55,5.94T158,35.6q-1.84,3.34-3.76,6.57t-3.88,6.1q-1.95,2.87-3.7,5.15a71.8,71.8,0,0,1-5.25,6.29,29.54,29.54,0,0,1-4.33,3.82,13,13,0,0,1-3.82,1.89,13.8,13.8,0,0,1-3.72.51,6.24,6.24,0,0,1-5-2A6.92,6.92,0,0,1,123,58.84q2.88-2,5.85-4.37a69.68,69.68,0,0,0,5.47-4.92,5.8,5.8,0,0,1-2.54-1.85A14.52,14.52,0,0,1,129.45,42.24Z"/><path class="cls-1" d="M185.2,12.59a28.27,28.27,0,0,1,8.57,1.22,15,15,0,0,1,6.3,3.74,13.62,13.62,0,0,1,3.42,6.33,21.59,21.59,0,0,1,0,9.09,28.45,28.45,0,0,1-3,8.81,22.3,22.3,0,0,1-5.18,6.33,20.73,20.73,0,0,1-7,3.81,27.19,27.19,0,0,1-8.4,1.26,17.4,17.4,0,0,1-6.12-1L171.4,65.21a24,24,0,0,1-2.62.51,23.62,23.62,0,0,1-3.6.27,17.82,17.82,0,0,1-3.07-.24,4.37,4.37,0,0,1-2.16-.94,3.35,3.35,0,0,1-1.07-1.93,8.66,8.66,0,0,1,.11-3.19l6.9-37.76a7.16,7.16,0,0,1,1.54-3.46A12.52,12.52,0,0,1,170.37,16a25.24,25.24,0,0,1,6.53-2.52A34.38,34.38,0,0,1,185.2,12.59Zm-5.34,30.05q8.12,0,9.89-9.68.92-5-.65-7.47T183.76,23a10,10,0,0,0-2.75.35,12.9,12.9,0,0,0-2.2.83l-3.16,17.31a9.86,9.86,0,0,0,1.91.79A8,8,0,0,0,179.86,42.64Z"/><path class="cls-1" d="M246.58,32.88a27.07,27.07,0,0,1-3.09,8.69,22.39,22.39,0,0,1-12.62,10.35,27.45,27.45,0,0,1-8.69,1.34A21.85,21.85,0,0,1,214,51.84a14.49,14.49,0,0,1-5.77-4.05,14.33,14.33,0,0,1-3-6.41,21.79,21.79,0,0,1,.05-8.5,25.92,25.92,0,0,1,3-8.42A23.17,23.17,0,0,1,220.92,14a26.15,26.15,0,0,1,8.7-1.42A21.3,21.3,0,0,1,237.79,14a14.88,14.88,0,0,1,5.76,4.09,14.37,14.37,0,0,1,3,6.41A21.41,21.41,0,0,1,246.58,32.88Zm-27.61,0q-.88,4.8.51,7.35a4.91,4.91,0,0,0,4.7,2.56,7.08,7.08,0,0,0,5.56-2.6,15.15,15.15,0,0,0,3.11-7.32q.86-4.72-.48-7.28A4.82,4.82,0,0,0,227.7,23a7.21,7.21,0,0,0-5.6,2.56A14.68,14.68,0,0,0,219,32.88Z"/></g></g></svg>