<svg xmlns="http://www.w3.org/2000/svg" viewBox="0 0 275.45 231.84"><defs><style>.cls-1{font-size:80.38px;font-family:BalooBhaina-Regular, Baloo Bhaina;}.cls-1,.cls-4{fill:#00a99d;}.cls-2{letter-spacing:-0.04em;}.cls-3{letter-spacing:-0.06em;}.cls-5{fill:#fff;}</style></defs><title>logo2</title><g id="レイヤー_2" data-name="レイヤー 2"><g id="レイヤー_1-2" data-name="レイヤー 1"><text class="cls-1" transform="matrix(0.98, 0, -0.18, 0.98, 11.92, 166.44)"><tspan class="cls-2">b</tspan><tspan class="cls-3" x="44.21" y="0">aby</tspan><tspan class="cls-2" x="165.18" y="0">p</tspan><tspan x="208.99" y="0">o</tspan></text><path class="cls-4" d="M138.51,8A39.93,39.93,0,1,1,98.58,47.93,40,40,0,0,1,138.51,8m0-8a47.93,47.93,0,1,0,47.93,47.93A47.93,47.93,0,0,0,138.51,0Z"/><path class="cls-4" d="M138.51,81.68c-7.94,0-14.16-4.1-14.16-9.34S130.57,63,138.51,63s14.16,4.1,14.16,9.34S146.46,81.68,138.51,81.68Zm0-13.5c-4.81,0-8.16,2.19-8.16,4.16s3.35,4.16,8.16,4.16,8.16-2.19,8.16-4.16S143.33,68.18,138.51,68.18Z"/><circle class="cls-5" cx="138.51" cy="89.96" r="19.04"/><path class="cls-4" d="M138.51,78.92a11,11,0,1,1-11,11,11.05,11.05,0,0,1,11-11m0-8a19,19,0,1,0,19,19,19,19,0,0,0-19-19Z"/><circle class="cls-4" cx="151.65" cy="51.22" r="5.25"/><circle class="cls-4" cx="128.01" cy="51.22" r="5.25"/><path class="cls-4" d="M140.13,33.26a16.62,16.62,0,0,1-15.52-10.8,4,4,0,1,1,7.5-2.79A8.59,8.59,0,1,0,144.11,9a4,4,0,0,1,3.69-7.1,16.59,16.59,0,0,1,7.08,22.37,16.48,16.48,0,0,1-9.72,8.17A16.66,16.66,0,0,1,140.13,33.26Z"/></g></g></svg>