<svg id="レイヤー_1" data-name="レイヤー 1" xmlns="http://www.w3.org/2000/svg" viewBox="0 0 246 65"><defs><style>.cls-1{fill:#00a99d;}</style></defs><title>アートボード 3</title><path class="cls-1" d="M6.8-.21A24.4,24.4,0,0,1,9.42-.73,23.7,23.7,0,0,1,13-1a17.86,17.86,0,0,1,3.07.24,4.39,4.39,0,0,1,2.15.94,3.36,3.36,0,0,1,1.07,1.93,8.65,8.65,0,0,1-.11,3.19L17.79,13a22.3,22.3,0,0,1,3.95-1.1,23.54,23.54,0,0,1,4-.31,17.58,17.58,0,0,1,6.93,1.34,13.84,13.84,0,0,1,5.28,3.89,14.39,14.39,0,0,1,2.94,6.33,22.52,22.52,0,0,1-.1,8.73,27.19,27.19,0,0,1-3.17,8.93,22.12,22.12,0,0,1-5.46,6.33A22.89,22.89,0,0,1,24.7,51a30.58,30.58,0,0,1-9,1.3A25.9,25.9,0,0,1,7.05,51a18.5,18.5,0,0,1-5.6-3A6.13,6.13,0,0,1-.87,41.72Zm10.8,41.93a8.25,8.25,0,0,0,6.09-2.48A13.66,13.66,0,0,0,27,31.88q.91-5-.7-7.39A5.64,5.64,0,0,0,21.27,22a11,11,0,0,0-2.78.31,18.87,18.87,0,0,0-2.66.94L12.7,40.46a6.53,6.53,0,0,0,1.93.91A10.38,10.38,0,0,0,17.59,41.72Z"/><path class="cls-1" d="M63.65,11.59a30.53,30.53,0,0,1,7.61.87,14.19,14.19,0,0,1,5.51,2.64,9.21,9.21,0,0,1,3,4.48A13.44,13.44,0,0,1,80,26L76.73,43.6A5.91,5.91,0,0,1,75,46.95a14.82,14.82,0,0,1-3.13,2.24q-5.69,3.07-15,3.07a31.24,31.24,0,0,1-7.39-.79,14.7,14.7,0,0,1-5.33-2.36,8.35,8.35,0,0,1-3-4,11,11,0,0,1-.27-5.66,13,13,0,0,1,4.76-8.34q3.77-2.91,10.68-3.62l10.54-1.1.1-.55a2.77,2.77,0,0,0-1.41-3.26,12.33,12.33,0,0,0-5.62-1,28.56,28.56,0,0,0-6,.63,36.37,36.37,0,0,0-5.41,1.57,4.24,4.24,0,0,1-1.34-2.16,6.34,6.34,0,0,1-.16-3,6,6,0,0,1,1.58-3.26,9.76,9.76,0,0,1,3.42-2.08A26.82,26.82,0,0,1,57.7,12,48.94,48.94,0,0,1,63.65,11.59Zm-5,30.92a18.56,18.56,0,0,0,3-.28,8.38,8.38,0,0,0,2.54-.75l1.15-6.29-5.77.47a10,10,0,0,0-3.8.94A3.2,3.2,0,0,0,53.91,39a2.64,2.64,0,0,0,.76,2.56Q55.71,42.5,58.63,42.5Z"/><path class="cls-1" d="M88.37-.21A24.32,24.32,0,0,1,91-.73,23.7,23.7,0,0,1,94.59-1a17.86,17.86,0,0,1,3.07.24,4.39,4.39,0,0,1,2.15.94,3.36,3.36,0,0,1,1.07,1.93,8.65,8.65,0,0,1-.11,3.19L99.37,13a22.3,22.3,0,0,1,3.95-1.1,23.54,23.54,0,0,1,4-.31,17.58,17.58,0,0,1,6.93,1.34,13.85,13.85,0,0,1,5.29,3.89,14.41,14.41,0,0,1,2.94,6.33,22.52,22.52,0,0,1-.1,8.73,27.17,27.17,0,0,1-3.17,8.93,22.12,22.12,0,0,1-5.46,6.33A22.9,22.9,0,0,1,106.28,51a30.57,30.57,0,0,1-9,1.3A25.9,25.9,0,0,1,88.63,51,18.5,18.5,0,0,1,83,48a6.13,6.13,0,0,1-2.32-6.29ZM99.17,41.72a8.26,8.26,0,0,0,6.09-2.48,13.64,13.64,0,0,0,3.36-7.35q.91-5-.7-7.39A5.64,5.64,0,0,0,102.84,22a11,11,0,0,0-2.78.31,18.87,18.87,0,0,0-2.66.94L94.27,40.46a6.53,6.53,0,0,0,1.93.91A10.38,10.38,0,0,0,99.17,41.72Z"/><path class="cls-1" d="M128.45,41.24q-.51-2-1-4.4t-1-5.59q-.49-3.14-.89-7.2t-.7-9.32a12.44,12.44,0,0,1,3.31-1.93A11,11,0,0,1,132.3,12a7.42,7.42,0,0,1,4.37,1.14q1.61,1.14,1.9,4.29L140.84,39h.32q1.44-2.67,2.92-5.82t3-6.49q1.48-3.34,2.84-6.69t2.5-6.57a14.87,14.87,0,0,1,6.51-1.5,7.2,7.2,0,0,1,4.36,1.18q1.6,1.18,1.07,4.09a28.63,28.63,0,0,1-1.45,4.92q-1.06,2.79-2.55,5.94T157,34.6q-1.84,3.34-3.76,6.57t-3.88,6.1q-1.95,2.87-3.7,5.15a71.8,71.8,0,0,1-5.25,6.29,29.54,29.54,0,0,1-4.33,3.82,13,13,0,0,1-3.82,1.89,13.8,13.8,0,0,1-3.72.51,6.24,6.24,0,0,1-5-2A6.92,6.92,0,0,1,122,57.84q2.88-2,5.85-4.37a69.68,69.68,0,0,0,5.47-4.92,5.8,5.8,0,0,1-2.54-1.85A14.52,14.52,0,0,1,128.45,41.24Z"/><path class="cls-1" d="M184.2,11.59a28.27,28.27,0,0,1,8.57,1.22,15,15,0,0,1,6.3,3.74,13.62,13.62,0,0,1,3.42,6.33,21.59,21.59,0,0,1,0,9.09,28.45,28.45,0,0,1-3,8.81,22.3,22.3,0,0,1-5.18,6.33,20.73,20.73,0,0,1-7,3.81,27.19,27.19,0,0,1-8.4,1.26,17.4,17.4,0,0,1-6.12-1L170.4,64.21a24,24,0,0,1-2.62.51,23.62,23.62,0,0,1-3.6.27,17.82,17.82,0,0,1-3.07-.24,4.37,4.37,0,0,1-2.16-.94,3.35,3.35,0,0,1-1.07-1.93,8.66,8.66,0,0,1,.11-3.19l6.9-37.76a7.16,7.16,0,0,1,1.54-3.46A12.52,12.52,0,0,1,169.37,15a25.24,25.24,0,0,1,6.53-2.52A34.38,34.38,0,0,1,184.2,11.59Zm-5.34,30.05q8.12,0,9.89-9.68.92-5-.65-7.47T182.76,22a10,10,0,0,0-2.75.35,12.9,12.9,0,0,0-2.2.83l-3.16,17.31a9.86,9.86,0,0,0,1.91.79A8,8,0,0,0,178.86,41.64Z"/><path class="cls-1" d="M245.58,31.88a27.07,27.07,0,0,1-3.09,8.69,22.39,22.39,0,0,1-12.62,10.35,27.45,27.45,0,0,1-8.69,1.34A21.85,21.85,0,0,1,213,50.84a14.49,14.49,0,0,1-5.77-4.05,14.33,14.33,0,0,1-3-6.41,21.79,21.79,0,0,1,.05-8.5,25.92,25.92,0,0,1,3-8.42A23.17,23.17,0,0,1,219.92,13a26.15,26.15,0,0,1,8.7-1.42A21.3,21.3,0,0,1,236.79,13a14.88,14.88,0,0,1,5.76,4.09,14.37,14.37,0,0,1,3,6.41A21.41,21.41,0,0,1,245.58,31.88Zm-27.61,0q-.88,4.8.51,7.35a4.91,4.91,0,0,0,4.7,2.56,7.08,7.08,0,0,0,5.56-2.6,15.15,15.15,0,0,0,3.11-7.32q.86-4.72-.48-7.28A4.82,4.82,0,0,0,226.7,22a7.21,7.21,0,0,0-5.6,2.56A14.68,14.68,0,0,0,218,31.88Z"/></svg>
